<mxfile host="app.diagrams.net" modified="2021-09-18T13:17:41.526Z" agent="5.0 (Windows NT 10.0; Win64; x64) AppleWebKit/537.36 (KHTML, like Gecko) Chrome/93.0.4577.82 Safari/537.36" etag="vkNlztvP04weNZS18QNJ" version="15.2.9" type="github">
  <diagram id="4eiXtul3faphOIwQLjhc" name="第 1 页">
    <mxGraphModel dx="1038" dy="547" grid="1" gridSize="10" guides="1" tooltips="1" connect="1" arrows="1" fold="1" page="1" pageScale="1" pageWidth="827" pageHeight="1169" math="0" shadow="0">
      <root>
        <mxCell id="0" />
        <mxCell id="1" parent="0" />
        <mxCell id="ZZb62tsl8MXSNhRTpZ3J-1" value="&lt;pre style=&quot;background-color: rgb(255 , 255 , 255) ; font-family: &amp;#34;jetbrains mono&amp;#34; , monospace ; font-size: 10px&quot;&gt;&lt;br&gt;&lt;/pre&gt;" style="rounded=0;whiteSpace=wrap;html=1;verticalAlign=top;fillColor=none;align=center;dashed=1;strokeColor=#FF6666;" parent="1" vertex="1">
          <mxGeometry x="130" y="580" width="140" height="150" as="geometry" />
        </mxCell>
        <mxCell id="ZZb62tsl8MXSNhRTpZ3J-2" value="&lt;pre style=&quot;background-color: rgb(255 , 255 , 255) ; font-family: &amp;#34;jetbrains mono&amp;#34; , monospace ; font-size: 10px&quot;&gt;&lt;br&gt;&lt;/pre&gt;" style="rounded=0;whiteSpace=wrap;html=1;verticalAlign=top;fillColor=none;align=center;dashed=1;strokeColor=#FF6666;" parent="1" vertex="1">
          <mxGeometry x="140" y="870" width="130" height="140" as="geometry" />
        </mxCell>
        <mxCell id="ZZb62tsl8MXSNhRTpZ3J-3" value="" style="edgeStyle=orthogonalEdgeStyle;rounded=0;orthogonalLoop=1;jettySize=auto;html=1;" parent="1" source="ZZb62tsl8MXSNhRTpZ3J-4" target="ZZb62tsl8MXSNhRTpZ3J-6" edge="1">
          <mxGeometry relative="1" as="geometry" />
        </mxCell>
        <mxCell id="ZZb62tsl8MXSNhRTpZ3J-4" value="&lt;b&gt;Degraded&lt;/b&gt;" style="rounded=0;whiteSpace=wrap;html=1;gradientColor=#b3b3b3;fillColor=#f5f5f5;strokeColor=#666666;" parent="1" vertex="1">
          <mxGeometry x="20" y="940" width="80" height="40" as="geometry" />
        </mxCell>
        <mxCell id="ZZb62tsl8MXSNhRTpZ3J-5" style="edgeStyle=orthogonalEdgeStyle;rounded=0;orthogonalLoop=1;jettySize=auto;html=1;exitX=0.5;exitY=1;exitDx=0;exitDy=0;entryX=0.5;entryY=0;entryDx=0;entryDy=0;" parent="1" source="ZZb62tsl8MXSNhRTpZ3J-6" target="ZZb62tsl8MXSNhRTpZ3J-8" edge="1">
          <mxGeometry relative="1" as="geometry" />
        </mxCell>
        <mxCell id="ZZb62tsl8MXSNhRTpZ3J-6" value="&lt;b&gt;Conv&lt;/b&gt;" style="rounded=0;whiteSpace=wrap;html=1;rotation=-90;verticalAlign=middle;gradientColor=#ffa500;fillColor=#ffcd28;strokeColor=#d79b00;" parent="1" vertex="1">
          <mxGeometry x="130" y="940" width="80" height="40" as="geometry" />
        </mxCell>
        <mxCell id="ZZb62tsl8MXSNhRTpZ3J-7" style="edgeStyle=orthogonalEdgeStyle;rounded=0;orthogonalLoop=1;jettySize=auto;html=1;exitX=0.5;exitY=1;exitDx=0;exitDy=0;entryX=0.5;entryY=0;entryDx=0;entryDy=0;" parent="1" source="ZZb62tsl8MXSNhRTpZ3J-8" target="ZZb62tsl8MXSNhRTpZ3J-10" edge="1">
          <mxGeometry relative="1" as="geometry" />
        </mxCell>
        <mxCell id="ZZb62tsl8MXSNhRTpZ3J-8" value="&lt;b&gt;CAB&lt;/b&gt;" style="rounded=0;whiteSpace=wrap;html=1;rotation=-90;verticalAlign=middle;gradientColor=#d5739d;fillColor=#e6d0de;strokeColor=#996185;" parent="1" vertex="1">
          <mxGeometry x="200" y="940" width="80" height="40" as="geometry" />
        </mxCell>
        <mxCell id="ZZb62tsl8MXSNhRTpZ3J-9" style="edgeStyle=orthogonalEdgeStyle;rounded=0;orthogonalLoop=1;jettySize=auto;html=1;exitX=1;exitY=0.5;exitDx=0;exitDy=0;fontColor=#FF170F;dashed=1;fillColor=#b1ddf0;strokeColor=#10739e;" parent="1" source="ZZb62tsl8MXSNhRTpZ3J-10" target="ZZb62tsl8MXSNhRTpZ3J-22" edge="1">
          <mxGeometry relative="1" as="geometry">
            <Array as="points">
              <mxPoint x="340" y="810" />
              <mxPoint x="480" y="810" />
            </Array>
          </mxGeometry>
        </mxCell>
        <mxCell id="ZZb62tsl8MXSNhRTpZ3J-10" value="" style="verticalLabelPosition=middle;verticalAlign=middle;html=1;shape=trapezoid;perimeter=trapezoidPerimeter;whiteSpace=wrap;size=0.23;arcSize=10;flipV=1;labelPosition=center;align=center;rotation=-90;gradientColor=#ffd966;fillColor=#fff2cc;strokeColor=#d6b656;" parent="1" vertex="1">
          <mxGeometry x="290" y="930" width="100" height="60" as="geometry" />
        </mxCell>
        <mxCell id="ZZb62tsl8MXSNhRTpZ3J-11" value="" style="edgeStyle=orthogonalEdgeStyle;rounded=0;orthogonalLoop=1;jettySize=auto;html=1;" parent="1" source="ZZb62tsl8MXSNhRTpZ3J-13" target="ZZb62tsl8MXSNhRTpZ3J-16" edge="1">
          <mxGeometry relative="1" as="geometry" />
        </mxCell>
        <mxCell id="ZZb62tsl8MXSNhRTpZ3J-12" style="edgeStyle=orthogonalEdgeStyle;rounded=0;orthogonalLoop=1;jettySize=auto;html=1;exitX=0;exitY=0.5;exitDx=0;exitDy=0;entryX=0;entryY=0.5;entryDx=0;entryDy=0;fontColor=#FF170F;dashed=1;fillColor=#fad9d5;strokeColor=#ae4132;" parent="1" source="ZZb62tsl8MXSNhRTpZ3J-13" target="ZZb62tsl8MXSNhRTpZ3J-22" edge="1">
          <mxGeometry relative="1" as="geometry" />
        </mxCell>
        <mxCell id="ZZb62tsl8MXSNhRTpZ3J-13" value="" style="verticalLabelPosition=middle;verticalAlign=middle;html=1;shape=trapezoid;perimeter=trapezoidPerimeter;whiteSpace=wrap;size=0.23;arcSize=10;flipV=1;labelPosition=center;align=center;rotation=90;gradientColor=#ea6b66;fillColor=#f8cecc;strokeColor=#b85450;" parent="1" vertex="1">
          <mxGeometry x="430" y="930" width="100" height="60" as="geometry" />
        </mxCell>
        <mxCell id="ZZb62tsl8MXSNhRTpZ3J-14" value="" style="edgeStyle=orthogonalEdgeStyle;rounded=0;orthogonalLoop=1;jettySize=auto;html=1;" parent="1" source="ZZb62tsl8MXSNhRTpZ3J-16" target="ZZb62tsl8MXSNhRTpZ3J-17" edge="1">
          <mxGeometry relative="1" as="geometry" />
        </mxCell>
        <mxCell id="ZZb62tsl8MXSNhRTpZ3J-15" style="edgeStyle=orthogonalEdgeStyle;rounded=0;orthogonalLoop=1;jettySize=auto;html=1;exitX=1;exitY=0.5;exitDx=0;exitDy=0;entryX=0.5;entryY=1;entryDx=0;entryDy=0;fontColor=#FF170F;fillColor=#d5e8d4;strokeColor=#82b366;gradientColor=#97d077;" parent="1" source="ZZb62tsl8MXSNhRTpZ3J-16" target="ZZb62tsl8MXSNhRTpZ3J-36" edge="1">
          <mxGeometry relative="1" as="geometry">
            <Array as="points">
              <mxPoint x="586" y="780" />
              <mxPoint x="390" y="780" />
            </Array>
          </mxGeometry>
        </mxCell>
        <mxCell id="ZZb62tsl8MXSNhRTpZ3J-16" value="&lt;b&gt;SAM&lt;/b&gt;" style="rounded=0;whiteSpace=wrap;html=1;rotation=-90;verticalAlign=middle;gradientColor=#97d077;fillColor=#d5e8d4;strokeColor=#82b366;" parent="1" vertex="1">
          <mxGeometry x="546" y="935" width="80" height="50" as="geometry" />
        </mxCell>
        <mxCell id="ZZb62tsl8MXSNhRTpZ3J-17" value="&lt;b&gt;Restored(I)&lt;/b&gt;" style="rounded=0;whiteSpace=wrap;html=1;rotation=-90;verticalAlign=middle;gradientColor=#b3b3b3;fillColor=#f5f5f5;strokeColor=#666666;" parent="1" vertex="1">
          <mxGeometry x="640" y="940" width="102" height="40" as="geometry" />
        </mxCell>
        <mxCell id="ZZb62tsl8MXSNhRTpZ3J-18" value="" style="verticalLabelPosition=bottom;verticalAlign=top;html=1;shape=mxgraph.basic.layered_rect;dx=10;outlineConnect=0;gradientColor=#7ea6e0;fillColor=#dae8fc;strokeColor=#6c8ebf;" parent="1" vertex="1">
          <mxGeometry x="390" y="940" width="40" height="40" as="geometry" />
        </mxCell>
        <mxCell id="ZZb62tsl8MXSNhRTpZ3J-19" value="&lt;h2&gt;&lt;span style=&quot;font-weight: normal&quot;&gt;U-Net&lt;/span&gt;&lt;/h2&gt;" style="text;html=1;strokeColor=none;fillColor=none;align=center;verticalAlign=middle;whiteSpace=wrap;rounded=0;" parent="1" vertex="1">
          <mxGeometry x="360" y="1010" width="100" height="30" as="geometry" />
        </mxCell>
        <mxCell id="ZZb62tsl8MXSNhRTpZ3J-20" value="&lt;h3&gt;&lt;span style=&quot;font-weight: normal&quot;&gt;&lt;font color=&quot;#ff6666&quot;&gt;Feature Extract&lt;/font&gt;&lt;/span&gt;&lt;/h3&gt;" style="text;html=1;strokeColor=none;fillColor=none;align=center;verticalAlign=middle;whiteSpace=wrap;rounded=0;fontColor=#FF170F;" parent="1" vertex="1">
          <mxGeometry x="140" y="880" width="130" height="20" as="geometry" />
        </mxCell>
        <mxCell id="ZZb62tsl8MXSNhRTpZ3J-21" value="" style="edgeStyle=orthogonalEdgeStyle;rounded=0;orthogonalLoop=1;jettySize=auto;html=1;fontColor=#FF170F;" parent="1" source="ZZb62tsl8MXSNhRTpZ3J-22" target="ZZb62tsl8MXSNhRTpZ3J-24" edge="1">
          <mxGeometry relative="1" as="geometry" />
        </mxCell>
        <mxCell id="ZZb62tsl8MXSNhRTpZ3J-22" value="" style="verticalLabelPosition=middle;verticalAlign=middle;html=1;shape=trapezoid;perimeter=trapezoidPerimeter;whiteSpace=wrap;size=0.23;arcSize=10;flipV=1;labelPosition=center;align=center;rotation=-90;gradientColor=#ffd966;fillColor=#fff2cc;strokeColor=#d6b656;" parent="1" vertex="1">
          <mxGeometry x="430" y="630" width="100" height="60" as="geometry" />
        </mxCell>
        <mxCell id="ZZb62tsl8MXSNhRTpZ3J-23" value="" style="edgeStyle=orthogonalEdgeStyle;rounded=0;orthogonalLoop=1;jettySize=auto;html=1;fontColor=#FF170F;" parent="1" source="ZZb62tsl8MXSNhRTpZ3J-24" target="ZZb62tsl8MXSNhRTpZ3J-39" edge="1">
          <mxGeometry relative="1" as="geometry" />
        </mxCell>
        <mxCell id="ZZb62tsl8MXSNhRTpZ3J-24" value="" style="verticalLabelPosition=middle;verticalAlign=middle;html=1;shape=trapezoid;perimeter=trapezoidPerimeter;whiteSpace=wrap;size=0.23;arcSize=10;flipV=1;labelPosition=center;align=center;rotation=90;gradientColor=#ea6b66;fillColor=#f8cecc;strokeColor=#b85450;" parent="1" vertex="1">
          <mxGeometry x="530" y="630" width="100" height="60" as="geometry" />
        </mxCell>
        <mxCell id="ZZb62tsl8MXSNhRTpZ3J-25" value="&lt;h2&gt;&lt;span style=&quot;font-weight: normal&quot;&gt;U-Former&lt;/span&gt;&lt;/h2&gt;" style="text;html=1;strokeColor=none;fillColor=none;align=center;verticalAlign=middle;whiteSpace=wrap;rounded=0;" parent="1" vertex="1">
          <mxGeometry x="480" y="585" width="100" height="30" as="geometry" />
        </mxCell>
        <mxCell id="ZZb62tsl8MXSNhRTpZ3J-26" value="" style="edgeStyle=orthogonalEdgeStyle;rounded=0;orthogonalLoop=1;jettySize=auto;html=1;fontColor=#FF170F;" parent="1" source="ZZb62tsl8MXSNhRTpZ3J-27" target="ZZb62tsl8MXSNhRTpZ3J-29" edge="1">
          <mxGeometry relative="1" as="geometry" />
        </mxCell>
        <mxCell id="ZZb62tsl8MXSNhRTpZ3J-27" value="&lt;b&gt;Degraded&lt;/b&gt;" style="rounded=0;whiteSpace=wrap;html=1;gradientColor=#b3b3b3;fillColor=#f5f5f5;strokeColor=#666666;" parent="1" vertex="1">
          <mxGeometry x="20" y="640" width="80" height="40" as="geometry" />
        </mxCell>
        <mxCell id="ZZb62tsl8MXSNhRTpZ3J-28" style="edgeStyle=orthogonalEdgeStyle;rounded=0;orthogonalLoop=1;jettySize=auto;html=1;exitX=0.5;exitY=1;exitDx=0;exitDy=0;entryX=0.5;entryY=0;entryDx=0;entryDy=0;" parent="1" source="ZZb62tsl8MXSNhRTpZ3J-29" target="ZZb62tsl8MXSNhRTpZ3J-31" edge="1">
          <mxGeometry relative="1" as="geometry" />
        </mxCell>
        <mxCell id="ZZb62tsl8MXSNhRTpZ3J-29" value="&lt;b&gt;Conv&lt;/b&gt;" style="rounded=0;whiteSpace=wrap;html=1;rotation=-90;verticalAlign=middle;gradientColor=#ffa500;fillColor=#ffcd28;strokeColor=#d79b00;" parent="1" vertex="1">
          <mxGeometry x="120" y="640" width="80" height="40" as="geometry" />
        </mxCell>
        <mxCell id="ZZb62tsl8MXSNhRTpZ3J-30" style="edgeStyle=orthogonalEdgeStyle;rounded=0;orthogonalLoop=1;jettySize=auto;html=1;exitX=0.5;exitY=1;exitDx=0;exitDy=0;entryX=0.5;entryY=0;entryDx=0;entryDy=0;fontColor=#FF170F;" parent="1" source="ZZb62tsl8MXSNhRTpZ3J-31" target="ZZb62tsl8MXSNhRTpZ3J-33" edge="1">
          <mxGeometry relative="1" as="geometry" />
        </mxCell>
        <mxCell id="ZZb62tsl8MXSNhRTpZ3J-31" value="&lt;b&gt;LeakyReLU&lt;/b&gt;" style="rounded=0;whiteSpace=wrap;html=1;rotation=-90;verticalAlign=middle;gradientColor=#ffd966;fillColor=#fff2cc;strokeColor=#d6b656;" parent="1" vertex="1">
          <mxGeometry x="190" y="640" width="80" height="40" as="geometry" />
        </mxCell>
        <mxCell id="ZZb62tsl8MXSNhRTpZ3J-32" value="" style="edgeStyle=orthogonalEdgeStyle;rounded=0;orthogonalLoop=1;jettySize=auto;html=1;fontColor=#FF170F;" parent="1" source="ZZb62tsl8MXSNhRTpZ3J-33" target="ZZb62tsl8MXSNhRTpZ3J-36" edge="1">
          <mxGeometry relative="1" as="geometry" />
        </mxCell>
        <mxCell id="ZZb62tsl8MXSNhRTpZ3J-33" value="&lt;b&gt;PosDrop&lt;/b&gt;" style="rounded=0;whiteSpace=wrap;html=1;rotation=-90;verticalAlign=middle;gradientColor=#7ea6e0;fillColor=#dae8fc;strokeColor=#6c8ebf;" parent="1" vertex="1">
          <mxGeometry x="280" y="640" width="80" height="40" as="geometry" />
        </mxCell>
        <mxCell id="ZZb62tsl8MXSNhRTpZ3J-34" value="&lt;h3&gt;&lt;span style=&quot;font-weight: normal&quot;&gt;&lt;font color=&quot;#ff6666&quot;&gt;Input Projection&lt;/font&gt;&lt;/span&gt;&lt;/h3&gt;" style="text;html=1;strokeColor=none;fillColor=none;align=center;verticalAlign=middle;whiteSpace=wrap;rounded=0;fontColor=#FF170F;" parent="1" vertex="1">
          <mxGeometry x="130" y="585" width="130" height="20" as="geometry" />
        </mxCell>
        <mxCell id="ZZb62tsl8MXSNhRTpZ3J-35" value="" style="edgeStyle=orthogonalEdgeStyle;rounded=0;orthogonalLoop=1;jettySize=auto;html=1;fontColor=#FF170F;" parent="1" source="ZZb62tsl8MXSNhRTpZ3J-36" target="ZZb62tsl8MXSNhRTpZ3J-22" edge="1">
          <mxGeometry relative="1" as="geometry" />
        </mxCell>
        <mxCell id="ZZb62tsl8MXSNhRTpZ3J-36" value="" style="shape=orEllipse;perimeter=ellipsePerimeter;whiteSpace=wrap;html=1;backgroundOutline=1;fontColor=#FF170F;strokeColor=#000000;align=center;verticalAlign=top;" parent="1" vertex="1">
          <mxGeometry x="380" y="650" width="20" height="20" as="geometry" />
        </mxCell>
        <mxCell id="ZZb62tsl8MXSNhRTpZ3J-37" value="&lt;b&gt;Restored(II)&lt;/b&gt;" style="rounded=0;whiteSpace=wrap;html=1;rotation=-90;verticalAlign=middle;gradientColor=#b3b3b3;fillColor=#f5f5f5;strokeColor=#666666;" parent="1" vertex="1">
          <mxGeometry x="727" y="640" width="100" height="40" as="geometry" />
        </mxCell>
        <mxCell id="ZZb62tsl8MXSNhRTpZ3J-38" style="edgeStyle=orthogonalEdgeStyle;rounded=0;orthogonalLoop=1;jettySize=auto;html=1;exitX=0.5;exitY=1;exitDx=0;exitDy=0;entryX=0.5;entryY=0;entryDx=0;entryDy=0;fontColor=#FF170F;" parent="1" source="ZZb62tsl8MXSNhRTpZ3J-39" target="ZZb62tsl8MXSNhRTpZ3J-37" edge="1">
          <mxGeometry relative="1" as="geometry" />
        </mxCell>
        <mxCell id="ZZb62tsl8MXSNhRTpZ3J-39" value="&lt;b&gt;Out Projection&lt;/b&gt;" style="rounded=0;whiteSpace=wrap;html=1;rotation=-90;verticalAlign=middle;gradientColor=#ffa500;fillColor=#ffcd28;strokeColor=#d79b00;" parent="1" vertex="1">
          <mxGeometry x="626" y="635" width="109" height="50" as="geometry" />
        </mxCell>
      </root>
    </mxGraphModel>
  </diagram>
</mxfile>
